PathFileType  4	(X/Y/Z) C:\simtk\uwmodels\fbknee\data\invivovalid2\exp\aclc01\Files_W_HJCs
DataRate	CameraRate	NumFrames	NumMarkers	Units	OrigDataRate	OrigDataStartFrame	OrigNumFrames
  200.0      200.0        5         42 mm      200.0         129       515
Frame#	Time            R.Shoulder                       R.Clavicle                       R.Bicep                          R.Elbow                          R.Forearm                        R.Wrist                          L.Shoulder                       L.Clavicle                       L.Scapula                        L.Bicep                          L.Elbow                          L.Forearm                        L.Wrist                          R.ASIS                           R.PSIS                           S2                               L.PSIS                           L.ASIS                           R.TH1                            R.TH2                            R.TH3                            R.Knee                           R.SH1                            R.SH2                            R.SH3                            R.SH4                            R.Ankle                          R.Heel                           R.MT5                            L.TH1                            L.TH2                            L.TH3                            L.TH4                            L.Knee                           L.SH1                            L.SH2                            L.SH3                            L.Ankle                          L.Heel                           L.MT5                            R_HJC                            L_HJC                  
                     X1         Y1         Z1         X2         Y2         Z2         X3         Y3         Z3         X4         Y4         Z4         X5         Y5         Z5         X6         Y6         Z6         X7         Y7         Z7         X8         Y8         Z8         X9         Y9         Z9         X10         Y10         Z10         X11         Y11         Z11         X12         Y12         Z12         X13         Y13         Z13         X14         Y14         Z14         X15         Y15         Z15         X16         Y16         Z16         X17         Y17         Z17         X18         Y18         Z18         X19         Y19         Z19         X20         Y20         Z20         X21         Y21         Z21         X22         Y22         Z22         X23         Y23         Z23         X24         Y24         Z24         X25         Y25         Z25         X26         Y26         Z26         X27         Y27         Z27         X28         Y28         Z28         X29         Y29         Z29         X30         Y30         Z30         X31         Y31         Z31         X32         Y32         Z32         X33         Y33         Z33         X34         Y34         Z34         X35         Y35         Z35         X36         Y36         Z36         X37         Y37         Z37         X38         Y38         Z38         X39         Y39         Z39         X40         Y40         Z40         X41         Y41         Z41         X42         Y42         Z42         

	129	0.64000	-815.631	5.475	1353.627	-774.296	156.478	1329.511	-770.524	-0.244	1135.984	-825.010	-111.445	1055.814	-715.456	-62.791	995.160	-675.016	-112.225	893.714	-834.797	388.410	1327.981	-768.768	213.599	1323.350	-954.354	271.746	1327.453	-840.262	404.252	1148.959	-958.337	455.988	1041.215	-916.610	462.698	932.367	-983.326	507.060	839.680	-748.595	48.541	898.451	-998.862	130.957	958.596	-1002.905	183.521	949.189	-991.754	236.741	957.511	-763.499	308.207	900.441	-841.002	-3.749	670.345	-989.066	29.172	692.079	-994.127	44.030	618.874	-966.335	38.023	472.022	-955.686	21.529	329.466	-967.178	35.179	256.836	-1059.335	72.658	358.411	-1073.046	80.115	283.972	-1035.836	73.367	75.851	-1099.271	128.177	46.293	-923.394	33.177	22.288	-707.570	361.573	675.489	-669.940	334.203	605.377	-838.300	373.658	609.022	-807.729	352.386	537.800	-742.569	354.736	482.654	-688.641	367.787	400.553	-796.765	341.309	384.492	-787.261	342.970	307.448	-664.824	352.750	89.653	-734.694	307.047	35.153	-554.892	372.897	54.432	-851.034	86.423	851.295	-856.663	281.185	827.104
	130	0.64500	-808.040	5.869	1352.566	-767.397	157.101	1328.501	-762.911	-0.253	1134.926	-816.868	-111.414	1054.714	-706.168	-61.980	994.541	-665.063	-110.629	893.381	-828.437	389.204	1326.742	-762.498	214.466	1321.600	-948.043	272.205	1326.353	-835.503	404.710	1148.130	-957.362	455.875	1040.472	-915.179	463.987	931.879	-983.807	508.220	840.462	-757.460	47.437	894.416	-991.683	132.021	957.014	-996.984	183.767	948.164	-985.237	237.398	956.190	-755.979	307.990	898.712	-835.689	-3.101	669.144	-984.513	29.262	691.730	-989.842	44.172	619.037	-963.528	37.734	471.874	-954.479	21.748	329.238	-965.593	35.498	256.493	-1056.969	73.902	357.820	-1071.319	80.307	284.650	-1035.719	73.468	75.986	-1099.271	128.177	46.293	-923.634	32.608	22.155	-700.613	359.869	673.471	-663.613	332.855	603.325	-831.377	373.253	606.958	-800.842	351.951	535.603	-736.957	353.998	481.133	-678.791	366.729	401.172	-786.957	341.877	381.954	-774.285	344.245	304.011	-642.666	354.788	91.061	-712.982	309.855	32.823	-533.352	373.982	59.119	-850.798	86.513	847.398	-851.814	281.683	826.026
	131	0.65000	-800.536	6.972	1350.882	-759.737	157.757	1327.086	-755.286	0.797	1133.205	-807.868	-111.274	1053.165	-697.858	-61.535	993.522	-655.084	-110.100	893.246	-822.583	389.366	1325.077	-755.196	214.207	1319.843	-941.628	272.131	1324.432	-830.378	405.617	1146.949	-954.228	454.675	1039.612	-913.293	465.832	931.260	-983.451	509.432	841.377	-752.207	47.323	893.212	-985.547	132.754	956.465	-990.067	184.628	946.839	-978.704	238.569	954.383	-749.536	308.759	896.949	-831.516	-3.097	668.029	-979.871	29.002	691.790	-985.984	44.499	618.917	-959.732	38.536	471.257	-952.441	22.259	328.790	-964.345	35.659	256.366	-1054.974	73.458	358.859	-1069.680	80.628	285.083	-1035.634	73.576	75.961	-1099.600	128.619	46.936	-923.553	33.008	22.095	-694.040	359.049	671.149	-657.269	331.554	600.427	-825.489	372.148	604.573	-795.256	351.159	534.017	-729.138	352.855	478.796	-669.286	365.903	401.725	-776.213	342.916	377.405	-761.799	345.588	301.269	-623.987	356.435	92.363	-691.365	312.255	31.425	-511.877	375.661	63.628	-844.951	86.804	846.291	-845.467	281.907	824.298
	132	0.65500	-794.990	6.906	1349.713	-753.389	158.318	1325.305	-748.747	1.287	1132.211	-799.499	-111.339	1052.160	-689.748	-61.409	992.623	-646.258	-110.013	892.780	-815.728	390.185	1323.576	-749.219	214.771	1318.042	-934.871	270.838	1322.551	-825.143	406.327	1145.829	-944.973	452.976	1040.021	-911.357	467.199	931.510	-982.867	510.744	842.350	-743.997	47.399	890.812	-979.134	132.929	955.826	-983.275	185.231	945.370	-971.678	239.086	952.611	-742.574	308.681	894.464	-826.139	-2.409	666.834	-974.553	29.916	691.505	-981.330	44.928	618.789	-956.345	38.399	470.969	-950.041	22.519	328.651	-962.989	35.752	256.616	-1052.575	73.606	359.223	-1068.250	80.835	285.619	-1035.361	73.440	76.201	-1099.600	128.619	46.936	-923.634	32.608	22.155	-687.857	357.841	668.390	-651.151	330.095	598.028	-819.521	371.852	603.020	-788.861	350.970	531.632	-723.116	352.422	476.666	-659.675	365.020	402.104	-765.373	343.546	375.713	-749.849	347.111	298.725	-604.300	357.407	94.438	-669.877	314.435	30.009	-492.920	375.956	69.788	-838.146	86.883	844.591	-838.847	281.932	822.127
	133	0.66000	-787.915	7.193	1348.243	-746.494	159.151	1323.488	-740.452	1.239	1130.352	-791.406	-111.675	1050.899	-681.264	-60.451	991.631	-636.614	-109.791	892.789	-809.388	390.388	1321.438	-742.105	216.039	1316.427	-928.405	272.891	1321.733	-821.499	407.288	1143.923	-948.857	458.006	1040.832	-909.038	468.671	931.602	-982.087	511.850	843.077	-737.645	47.345	889.400	-972.450	134.319	954.265	-977.410	186.657	943.984	-965.238	240.346	951.225	-735.824	308.937	892.521	-820.931	-1.501	665.707	-969.657	29.901	691.112	-976.831	45.697	618.098	-953.306	38.504	470.547	-948.159	22.464	328.408	-961.068	35.552	256.108	-1050.072	74.601	358.937	-1066.297	81.438	285.902	-1034.711	73.547	76.192	-1099.773	129.201	46.286	-923.142	32.923	21.768	-681.978	356.662	665.632	-645.574	329.216	595.437	-813.034	371.190	600.808	-783.289	349.786	529.098	-716.496	352.172	474.846	-649.738	364.662	402.543	-757.140	345.827	371.797	-737.947	348.363	296.448	-586.024	358.656	96.676	-649.980	316.440	29.613	-472.262	376.066	75.131	-832.116	87.411	843.217	-832.175	282.414	820.349
